<svg xmlns="http://www.w3.org/2000/svg" xmlns:xlink="http://www.w3.org/1999/xlink" width="275" zoomAndPan="magnify" viewBox="0 0 206.25 231" height="308" preserveAspectRatio="xMidYMid meet" version="1.0"><defs><filter x="0%" y="0%" width="100%" height="100%" id="a30ed169f5"><feColorMatrix values="0 0 0 0 1 0 0 0 0 1 0 0 0 0 1 0 0 0 1 0" color-interpolation-filters="sRGB"/></filter><clipPath id="66751526a2"><path d="M 0 0.417969 L 205.503906 0.417969 L 205.503906 230 L 0 230 Z M 0 0.417969 " clip-rule="nonzero"/></clipPath><mask id="9b03743b13"><g filter="url(#a30ed169f5)"><rect x="-20.625" width="247.5" fill="#000000" y="-23.1" height="277.2" fill-opacity="0.5"/></g></mask><clipPath id="488e061d0c"><path d="M 0 0.417969 L 205.503906 0.417969 L 205.503906 229.835938 L 0 229.835938 Z M 0 0.417969 " clip-rule="nonzero"/></clipPath><clipPath id="4e2d47f3f7"><rect x="0" width="206" y="0" height="230"/></clipPath></defs><g clip-path="url(#66751526a2)"><g mask="url(#9b03743b13)"><g transform="matrix(1, 0, 0, 1, 0, -0.000000000000030531)"><g clip-path="url(#4e2d47f3f7)"><g clip-path="url(#488e061d0c)"><path fill="#d9d9d9" d="M 205.425781 0.417969 L 187.300781 205.8125 L 102.726562 229.972656 L 18.15625 205.8125 L 0.03125 0.417969 Z M 53.195312 133.320312 L 77.359375 133.320312 L 77.949219 148.421875 L 102.726562 156.871094 L 127.503906 148.421875 L 129.296875 121.238281 L 76.15625 121.238281 L 74.929688 97.074219 L 130.527344 97.074219 L 132.320312 72.910156 L 48.972656 72.910156 L 47.15625 48.746094 L 157.710938 48.746094 L 154.691406 97.074219 L 150.441406 166.542969 L 102.726562 182.261719 L 55.015625 166.542969 Z M 53.195312 133.320312 " fill-opacity="1" fill-rule="evenodd"/></g></g></g></g></g></svg>