<svg xmlns="http://www.w3.org/2000/svg" xmlns:xlink="http://www.w3.org/1999/xlink" width="303" zoomAndPan="magnify" viewBox="0 0 227.25 231" height="308" preserveAspectRatio="xMidYMid meet" version="1.0"><defs><filter x="0%" y="0%" width="100%" height="100%" id="aacdf47439"><feColorMatrix values="0 0 0 0 1 0 0 0 0 1 0 0 0 0 1 0 0 0 1 0" color-interpolation-filters="sRGB"/></filter><clipPath id="97cde026ea"><path d="M 0 2 L 226.503906 2 L 226.503906 230 L 0 230 Z M 0 2 " clip-rule="nonzero"/></clipPath><mask id="c69f940c65"><g filter="url(#aacdf47439)"><rect x="-22.725" width="272.7" fill="#000000" y="-23.1" height="277.2" fill-opacity="0.5"/></g></mask><clipPath id="efe366d724"><path d="M 49 166 L 195 166 L 195 227.304688 L 49 227.304688 Z M 49 166 " clip-rule="nonzero"/></clipPath><clipPath id="2b2d7ef5aa"><path d="M 166 49 L 226.503906 49 L 226.503906 195 L 166 195 Z M 166 49 " clip-rule="nonzero"/></clipPath><clipPath id="cdc1709c5f"><path d="M 48 0.773438 L 167 0.773438 L 167 50 L 48 50 Z M 48 0.773438 " clip-rule="nonzero"/></clipPath><clipPath id="52c29f4b55"><rect x="0" width="227" y="0" height="228"/></clipPath></defs><g clip-path="url(#97cde026ea)"><g mask="url(#c69f940c65)"><g transform="matrix(1, 0, 0, 1, 0, 2)"><g clip-path="url(#52c29f4b55)"><path fill="#d9d9d9" d="M 62.875 62.542969 L 48.242188 47.902344 L 48.300781 153.636719 L 48.476562 158.570312 C 48.546875 160.90625 48.988281 163.523438 49.695312 166.246094 L 165.582031 207.117188 L 194.574219 194.28125 L 194.601562 194.242188 L 62.867188 62.542969 Z M 62.875 62.542969 " fill-opacity="1" fill-rule="nonzero"/><g clip-path="url(#efe366d724)"><path fill="#a6a6a6" d="M 49.699219 166.246094 L 49.710938 166.246094 C 49.699219 166.203125 49.683594 166.152344 49.660156 166.101562 C 49.683594 166.15625 49.683594 166.207031 49.695312 166.246094 Z M 194.546875 194.28125 L 165.554688 207.117188 L 49.683594 166.246094 C 51.894531 174.746094 56.800781 184.296875 62.066406 189.511719 L 99.867188 227.121094 L 183.976562 227.226562 L 194.511719 194.28125 Z M 194.546875 194.28125 " fill-opacity="1" fill-rule="nonzero"/></g><path fill="#a6a6a6" d="M 48.640625 47.90625 L 3.582031 115.953125 C -0.160156 119.949219 1.707031 128.195312 7.730469 134.269531 L 33.738281 160.492188 L 50.089844 166.253906 C 49.382812 163.539062 48.9375 160.949219 48.867188 158.582031 L 48.691406 153.644531 L 48.640625 47.914062 Z M 48.640625 47.90625 " fill-opacity="1" fill-rule="nonzero"/><path fill="#a6a6a6" d="M 166.535156 49.269531 C 163.8125 48.578125 161.203125 48.144531 158.855469 48.078125 L 153.628906 47.886719 L 48.242188 47.910156 L 194.597656 194.246094 L 207.453125 165.25 L 166.542969 49.277344 Z M 166.535156 49.269531 " fill-opacity="1" fill-rule="nonzero"/><g clip-path="url(#2b2d7ef5aa)"><path fill="#d9d9d9" d="M 166.402344 49.242188 C 166.449219 49.261719 166.496094 49.273438 166.535156 49.28125 L 166.535156 49.265625 C 166.492188 49.253906 166.449219 49.253906 166.402344 49.238281 Z M 189.792969 61.683594 C 184.46875 56.328125 175.046875 51.429688 166.535156 49.28125 L 207.445312 165.242188 L 194.574219 194.238281 L 225.980469 184.203125 L 226.050781 98.097656 L 189.789062 61.679688 Z M 189.792969 61.683594 " fill-opacity="1" fill-rule="nonzero"/></g><g clip-path="url(#cdc1709c5f)"><path fill="#d9d9d9" d="M 160.800781 33.023438 L 134.636719 7 C 128.535156 0.996094 120.289062 -0.875 116.328125 2.859375 L 48.285156 47.902344 L 153.671875 47.878906 L 158.894531 48.070312 C 161.246094 48.140625 163.859375 48.570312 166.578125 49.261719 L 160.808594 33.015625 Z M 160.800781 33.023438 " fill-opacity="1" fill-rule="nonzero"/></g></g></g></g></g></svg>