<svg xmlns="http://www.w3.org/2000/svg" xmlns:xlink="http://www.w3.org/1999/xlink" width="308" zoomAndPan="magnify" viewBox="0 0 230.87999 240.749995" height="321" preserveAspectRatio="xMidYMid meet" version="1.0"><defs><filter x="0%" y="0%" width="100%" height="100%" id="5e67097345"><feColorMatrix values="0 0 0 0 1 0 0 0 0 1 0 0 0 0 1 0 0 0 1 0" color-interpolation-filters="sRGB"/></filter><clipPath id="201777e474"><path d="M 0.0585938 0 L 230.699219 0 L 230.699219 231 L 0.0585938 231 Z M 0.0585938 0 " clip-rule="nonzero"/></clipPath><mask id="937b99a649"><g filter="url(#5e67097345)"><rect x="-23.087999" width="277.055988" fill="#000000" y="-24.074999" height="288.899994" fill-opacity="0.5"/></g></mask><clipPath id="320426e93e"><path d="M 0.0585938 0 L 230.070312 0 L 230.070312 230.011719 L 0.0585938 230.011719 Z M 0.0585938 0 " clip-rule="nonzero"/></clipPath><clipPath id="e216b7d0b5"><rect x="0" width="231" y="0" height="231"/></clipPath></defs><g clip-path="url(#201777e474)"><g mask="url(#937b99a649)"><g transform="matrix(1, 0, 0, 1, 0.000000000000000007, 0)"><g clip-path="url(#e216b7d0b5)"><g clip-path="url(#320426e93e)"><path fill="#d9d9d9" d="M 225.867188 104.828125 L 125.382812 4.34375 C 124.695312 3.65625 123.949219 3.042969 123.140625 2.5 C 122.328125 1.960938 121.476562 1.503906 120.578125 1.128906 C 119.679688 0.757812 118.75 0.476562 117.796875 0.285156 C 116.84375 0.0976562 115.878906 0.00390625 114.90625 0.00390625 C 113.933594 0.00390625 112.96875 0.0976562 112.015625 0.285156 C 111.058594 0.476562 110.132812 0.757812 109.234375 1.128906 C 108.335938 1.503906 107.480469 1.960938 106.671875 2.5 C 105.863281 3.042969 105.113281 3.65625 104.425781 4.34375 L 83.570312 25.203125 L 110.035156 51.667969 C 116.191406 49.511719 123.242188 50.984375 128.144531 55.890625 C 128.726562 56.472656 129.265625 57.09375 129.757812 57.75 C 130.253906 58.40625 130.699219 59.09375 131.097656 59.816406 C 131.496094 60.535156 131.839844 61.277344 132.132812 62.046875 C 132.425781 62.8125 132.667969 63.597656 132.851562 64.398438 C 133.035156 65.203125 133.160156 66.011719 133.230469 66.832031 C 133.300781 67.648438 133.316406 68.46875 133.269531 69.292969 C 133.226562 70.113281 133.125 70.925781 132.964844 71.734375 C 132.808594 72.539062 132.59375 73.332031 132.324219 74.109375 L 157.835938 99.621094 C 164.007812 97.492188 171.128906 98.863281 176.054688 103.804688 C 176.460938 104.214844 176.851562 104.640625 177.21875 105.089844 C 177.582031 105.535156 177.929688 106 178.25 106.480469 C 178.570312 106.960938 178.867188 107.453125 179.140625 107.964844 C 179.414062 108.472656 179.660156 108.996094 179.878906 109.527344 C 180.101562 110.0625 180.296875 110.605469 180.464844 111.160156 C 180.632812 111.710938 180.773438 112.273438 180.886719 112.839844 C 181 113.40625 181.082031 113.976562 181.140625 114.550781 C 181.195312 115.125 181.226562 115.703125 181.226562 116.28125 C 181.226562 116.859375 181.195312 117.4375 181.140625 118.011719 C 181.082031 118.585938 181 119.15625 180.886719 119.722656 C 180.773438 120.289062 180.632812 120.851562 180.464844 121.402344 C 180.296875 121.957031 180.101562 122.5 179.882812 123.035156 C 179.660156 123.566406 179.414062 124.089844 179.140625 124.597656 C 178.867188 125.109375 178.570312 125.605469 178.25 126.085938 C 177.929688 126.566406 177.585938 127.027344 177.21875 127.476562 C 176.851562 127.921875 176.464844 128.347656 176.054688 128.757812 C 175.648438 129.167969 175.21875 129.554688 174.773438 129.921875 C 174.328125 130.289062 173.863281 130.632812 173.382812 130.953125 C 172.902344 131.273438 172.40625 131.570312 171.898438 131.839844 C 171.386719 132.113281 170.863281 132.359375 170.332031 132.582031 C 169.796875 132.804688 169.253906 132.996094 168.699219 133.164062 C 168.148438 133.332031 167.585938 133.472656 167.019531 133.585938 C 166.453125 133.699219 165.882812 133.78125 165.308594 133.839844 C 164.734375 133.894531 164.15625 133.921875 163.578125 133.921875 C 163 133.921875 162.421875 133.894531 161.847656 133.835938 C 161.273438 133.78125 160.703125 133.695312 160.136719 133.582031 C 159.570312 133.46875 159.007812 133.328125 158.457031 133.160156 C 157.902344 132.992188 157.359375 132.796875 156.828125 132.578125 C 156.292969 132.355469 155.769531 132.109375 155.261719 131.835938 C 154.75 131.5625 154.257812 131.265625 153.777344 130.945312 C 153.296875 130.621094 152.832031 130.277344 152.386719 129.910156 C 151.941406 129.546875 151.511719 129.15625 151.105469 128.75 C 145.925781 123.570312 144.644531 115.945312 147.261719 109.566406 L 123.472656 85.773438 L 123.472656 148.382812 C 125.210938 149.242188 126.769531 150.355469 128.144531 151.71875 C 128.554688 152.128906 128.941406 152.554688 129.308594 153.003906 C 129.675781 153.449219 130.019531 153.914062 130.339844 154.394531 C 130.660156 154.875 130.957031 155.367188 131.230469 155.878906 C 131.5 156.386719 131.75 156.910156 131.96875 157.441406 C 132.191406 157.976562 132.386719 158.519531 132.550781 159.070312 C 132.71875 159.625 132.859375 160.183594 132.972656 160.75 C 133.085938 161.316406 133.171875 161.886719 133.226562 162.460938 C 133.285156 163.039062 133.3125 163.613281 133.3125 164.191406 C 133.3125 164.769531 133.285156 165.34375 133.226562 165.921875 C 133.171875 166.496094 133.085938 167.066406 132.972656 167.632812 C 132.859375 168.199219 132.71875 168.757812 132.550781 169.3125 C 132.386719 169.863281 132.191406 170.40625 131.96875 170.941406 C 131.75 171.476562 131.5 171.996094 131.230469 172.503906 C 130.957031 173.015625 130.660156 173.511719 130.339844 173.992188 C 130.019531 174.46875 129.675781 174.933594 129.308594 175.378906 C 128.941406 175.828125 128.554688 176.253906 128.144531 176.664062 C 127.738281 177.070312 127.308594 177.457031 126.863281 177.824219 C 126.417969 178.191406 125.953125 178.535156 125.472656 178.855469 C 124.992188 179.175781 124.5 179.472656 123.988281 179.746094 C 123.480469 180.019531 122.957031 180.265625 122.425781 180.484375 C 121.890625 180.707031 121.347656 180.902344 120.792969 181.070312 C 120.242188 181.238281 119.683594 181.378906 119.117188 181.488281 C 118.550781 181.601562 117.980469 181.6875 117.402344 181.742188 C 116.828125 181.800781 116.253906 181.828125 115.675781 181.828125 C 115.097656 181.828125 114.519531 181.800781 113.945312 181.742188 C 113.371094 181.6875 112.800781 181.601562 112.234375 181.488281 C 111.667969 181.378906 111.109375 181.238281 110.554688 181.070312 C 110.003906 180.902344 109.460938 180.707031 108.925781 180.484375 C 108.390625 180.265625 107.871094 180.019531 107.359375 179.746094 C 106.851562 179.472656 106.355469 179.175781 105.875 178.855469 C 105.394531 178.535156 104.933594 178.191406 104.484375 177.824219 C 104.039062 177.457031 103.613281 177.070312 103.203125 176.664062 C 102.792969 176.253906 102.40625 175.828125 102.039062 175.382812 C 101.671875 174.933594 101.328125 174.472656 101.007812 173.992188 C 100.6875 173.511719 100.390625 173.015625 100.117188 172.507812 C 99.84375 171.996094 99.597656 171.476562 99.375 170.941406 C 99.152344 170.410156 98.960938 169.867188 98.792969 169.3125 C 98.625 168.757812 98.484375 168.199219 98.371094 167.632812 C 98.257812 167.066406 98.171875 166.496094 98.117188 165.921875 C 98.058594 165.347656 98.03125 164.769531 98.03125 164.191406 C 98.03125 163.613281 98.058594 163.039062 98.117188 162.460938 C 98.171875 161.886719 98.257812 161.316406 98.371094 160.75 C 98.484375 160.183594 98.625 159.625 98.792969 159.070312 C 98.960938 158.519531 99.152344 157.972656 99.375 157.441406 C 99.597656 156.90625 99.84375 156.386719 100.117188 155.875 C 100.390625 155.367188 100.6875 154.871094 101.007812 154.390625 C 101.328125 153.910156 101.671875 153.449219 102.039062 153.003906 C 102.40625 152.554688 102.792969 152.128906 103.203125 151.71875 C 104.910156 150.023438 106.800781 148.734375 108.980469 147.871094 L 108.980469 84.679688 C 106.878906 83.816406 104.910156 82.546875 103.203125 80.832031 C 102.589844 80.21875 102.019531 79.5625 101.503906 78.863281 C 100.984375 78.164062 100.519531 77.429688 100.109375 76.664062 C 99.699219 75.894531 99.351562 75.101562 99.058594 74.28125 C 98.765625 73.460938 98.535156 72.625 98.367188 71.769531 C 98.199219 70.917969 98.09375 70.054688 98.054688 69.1875 C 98.011719 68.316406 98.039062 67.449219 98.125 66.582031 C 98.214844 65.71875 98.363281 64.863281 98.578125 64.019531 C 98.792969 63.175781 99.070312 62.355469 99.40625 61.550781 L 73.296875 35.457031 L 4.398438 104.289062 C 3.707031 104.976562 3.09375 105.722656 2.550781 106.535156 C 2.011719 107.34375 1.554688 108.195312 1.179688 109.097656 C 0.808594 109.996094 0.527344 110.921875 0.335938 111.878906 C 0.144531 112.832031 0.0507812 113.796875 0.0507812 114.769531 C 0.0507812 115.742188 0.144531 116.707031 0.335938 117.664062 C 0.527344 118.617188 0.808594 119.542969 1.179688 120.445312 C 1.554688 121.34375 2.011719 122.199219 2.550781 123.007812 C 3.09375 123.816406 3.707031 124.566406 4.398438 125.253906 L 104.886719 225.726562 C 105.574219 226.417969 106.324219 227.03125 107.132812 227.570312 C 107.941406 228.113281 108.796875 228.570312 109.695312 228.941406 C 110.59375 229.316406 111.519531 229.597656 112.472656 229.785156 C 113.429688 229.976562 114.394531 230.070312 115.367188 230.070312 C 116.339844 230.070312 117.300781 229.976562 118.257812 229.785156 C 119.210938 229.597656 120.136719 229.316406 121.039062 228.941406 C 121.9375 228.570312 122.789062 228.113281 123.597656 227.570312 C 124.410156 227.03125 125.15625 226.417969 125.84375 225.726562 L 225.867188 125.863281 C 226.554688 125.175781 227.171875 124.425781 227.710938 123.617188 C 228.253906 122.808594 228.710938 121.953125 229.082031 121.054688 C 229.457031 120.15625 229.738281 119.230469 229.929688 118.273438 C 230.117188 117.320312 230.214844 116.355469 230.214844 115.382812 C 230.214844 114.40625 230.117188 113.445312 229.929688 112.488281 C 229.738281 111.535156 229.457031 110.605469 229.082031 109.707031 C 228.710938 108.808594 228.253906 107.953125 227.710938 107.144531 C 227.171875 106.335938 226.554688 105.585938 225.867188 104.898438 " fill-opacity="1" fill-rule="nonzero"/></g></g></g></g></g></svg>