<svg xmlns="http://www.w3.org/2000/svg" xmlns:xlink="http://www.w3.org/1999/xlink" width="274" zoomAndPan="magnify" viewBox="0 0 205.5 231" height="308" preserveAspectRatio="xMidYMid meet" version="1.0"><defs><filter x="0%" y="0%" width="100%" height="100%" id="c60b702d07"><feColorMatrix values="0 0 0 0 1 0 0 0 0 1 0 0 0 0 1 0 0 0 1 0" color-interpolation-filters="sRGB"/></filter><clipPath id="0db18968c0"><path d="M 0 0.28125 L 205 0.28125 L 205 230 L 0 230 Z M 0 0.28125 " clip-rule="nonzero"/></clipPath><mask id="dbd241c2cc"><g filter="url(#c60b702d07)"><rect x="-20.55" width="246.6" fill="#000000" y="-23.1" height="277.2" fill-opacity="0.5"/></g></mask><clipPath id="5551b7f82d"><path d="M 0 0.519531 L 205 0.519531 L 205 229.882812 L 0 229.882812 Z M 0 0.519531 " clip-rule="nonzero"/></clipPath><clipPath id="3d31758469"><rect x="0" width="205" y="0" height="230"/></clipPath></defs><g clip-path="url(#0db18968c0)"><g mask="url(#dbd241c2cc)"><g transform="matrix(1, 0, 0, 1, 0, 0.000000000000003331)"><g clip-path="url(#3d31758469)"><g clip-path="url(#5551b7f82d)"><path fill="#d9d9d9" d="M 203.710938 2.1875 C 202.765625 1.15625 201.433594 0.566406 200.03125 0.566406 L 5.304688 0.566406 C 3.902344 0.566406 2.570312 1.15625 1.625 2.1875 C 0.679688 3.21875 0.214844 4.605469 0.339844 5.996094 L 17.882812 202.492188 C 18.066406 204.546875 19.496094 206.277344 21.480469 206.84375 L 101.277344 229.636719 C 101.722656 229.761719 102.179688 229.824219 102.644531 229.824219 C 103.105469 229.824219 103.566406 229.761719 104.007812 229.636719 L 183.871094 206.84375 C 185.855469 206.277344 187.285156 204.546875 187.46875 202.492188 L 205.003906 5.996094 C 205.121094 4.597656 204.652344 3.21875 203.710938 2.1875 Z M 161.710938 69.9375 L 67.960938 69.9375 L 70.1875 95.304688 L 159.453125 95.304688 L 152.761719 170.261719 L 102.636719 185.417969 L 102.144531 185.269531 L 52.59375 170.257812 L 49.894531 139.707031 L 74.160156 139.707031 L 75.226562 151.570312 L 102.917969 157.371094 L 130.113281 151.558594 L 133.011719 119.488281 L 48.070312 119.488281 L 41.484375 45.691406 L 163.886719 45.691406 Z M 161.710938 69.9375 " fill-opacity="1" fill-rule="nonzero"/></g></g></g></g></g></svg>