<svg xmlns="http://www.w3.org/2000/svg" xmlns:xlink="http://www.w3.org/1999/xlink" width="308" zoomAndPan="magnify" viewBox="0 0 230.87999 240.749995" height="321" preserveAspectRatio="xMidYMid meet" version="1.0"><defs><filter x="0%" y="0%" width="100%" height="100%" id="fd03f5aded"><feColorMatrix values="0 0 0 0 1 0 0 0 0 1 0 0 0 0 1 0 0 0 1 0" color-interpolation-filters="sRGB"/></filter><clipPath id="8e53d98fb6"><path d="M 0.0585938 0 L 230.699219 0 L 230.699219 230 L 0.0585938 230 Z M 0.0585938 0 " clip-rule="nonzero"/></clipPath><mask id="cdefb71a15"><g filter="url(#fd03f5aded)"><rect x="-23.087999" width="277.055988" fill="#000000" y="-24.074999" height="288.899994" fill-opacity="0.5"/></g></mask><clipPath id="8165ee9435"><path d="M 0.0585938 0.480469 L 230 0.480469 L 230 229.679688 L 0.0585938 229.679688 Z M 0.0585938 0.480469 " clip-rule="nonzero"/></clipPath><clipPath id="6afd2110ef"><rect x="0" width="231" y="0" height="230"/></clipPath></defs><g clip-path="url(#8e53d98fb6)"><g mask="url(#cdefb71a15)"><g transform="matrix(1, 0, 0, 1, 0.000000000000000007, 0)"><g clip-path="url(#6afd2110ef)"><g clip-path="url(#8165ee9435)"><path fill="#d9d9d9" d="M 2.667969 4.042969 C 4.644531 1.804688 7.488281 0.519531 10.472656 0.519531 L 218.757812 0.519531 C 221.742188 0.519531 224.585938 1.804688 226.5625 4.042969 C 228.539062 6.28125 229.460938 9.261719 229.089844 12.226562 L 208.261719 178.851562 C 207.828125 182.308594 205.699219 185.316406 202.585938 186.875 L 119.273438 228.53125 C 116.339844 229.996094 112.890625 229.996094 109.957031 228.53125 L 26.644531 186.875 C 23.53125 185.316406 21.398438 182.308594 20.96875 178.851562 L 0.140625 12.226562 C -0.230469 9.261719 0.691406 6.28125 2.667969 4.042969 Z M 22.269531 21.347656 L 40.945312 170.738281 L 114.613281 207.574219 L 188.285156 170.738281 L 206.957031 21.347656 Z M 22.269531 21.347656 " fill-opacity="1" fill-rule="evenodd"/></g><path fill="#d9d9d9" d="M 88.578125 159.613281 L 88.578125 42.175781 L 109.40625 42.175781 L 109.40625 177.558594 C 109.40625 181.273438 107.429688 184.703125 104.21875 186.566406 C 101.011719 188.429688 97.050781 188.445312 93.828125 186.601562 L 57.378906 165.773438 L 67.710938 147.691406 Z M 88.578125 159.613281 " fill-opacity="1" fill-rule="evenodd"/><path fill="#d9d9d9" d="M 119.820312 42.175781 C 119.820312 36.425781 124.484375 31.761719 130.234375 31.761719 L 182.304688 31.761719 L 182.304688 52.589844 L 140.648438 52.589844 L 140.648438 96.886719 L 174.839844 89.289062 C 178.085938 88.566406 181.480469 89.4375 183.976562 91.636719 C 186.472656 93.832031 187.773438 97.085938 187.472656 100.398438 L 182.265625 157.675781 C 181.9375 161.265625 179.777344 164.433594 176.550781 166.046875 L 134.894531 186.875 L 125.578125 168.246094 L 162.046875 150.011719 L 165.4375 112.714844 L 132.496094 120.035156 C 129.410156 120.71875 126.183594 119.96875 123.71875 117.992188 C 121.257812 116.015625 119.820312 113.027344 119.820312 109.867188 Z M 119.820312 42.175781 " fill-opacity="1" fill-rule="evenodd"/></g></g></g></g></svg>